<svg width="170" height="170" viewBox="0 0 170 170" fill="none" xmlns="http://www.w3.org/2000/svg">
<circle cx="85" cy="85" r="85" fill="#D9D9D9"/>
<path d="M111 47.84L88.0881 25H84.0755V55.36L65.6577 37L60 42.64L82.4304 65L60 87.36L65.6577 93L84.0755 74.64V105H88.0881L111 82.16L93.7459 65L111 47.84ZM92.1007 40.32L99.6444 47.84L92.1007 55.36V40.32ZM99.6444 82.16L92.1007 89.68V74.64L99.6444 82.16Z" fill="#B7B7B7"/>
<path d="M79.5568 130.273C79.5568 132.176 79.196 133.795 78.4744 135.131C77.7585 136.466 76.7813 137.486 75.5426 138.19C74.3097 138.889 72.9233 139.239 71.3835 139.239C69.8324 139.239 68.4403 138.886 67.2074 138.182C65.9744 137.477 65 136.457 64.2841 135.122C63.5682 133.787 63.2102 132.17 63.2102 130.273C63.2102 128.369 63.5682 126.75 64.2841 125.415C65 124.08 65.9744 123.062 67.2074 122.364C68.4403 121.659 69.8324 121.307 71.3835 121.307C72.9233 121.307 74.3097 121.659 75.5426 122.364C76.7813 123.062 77.7585 124.08 78.4744 125.415C79.196 126.75 79.5568 128.369 79.5568 130.273ZM75.8153 130.273C75.8153 129.04 75.6307 128 75.2614 127.153C74.8977 126.307 74.3835 125.665 73.7188 125.227C73.054 124.79 72.2756 124.571 71.3835 124.571C70.4915 124.571 69.7131 124.79 69.0483 125.227C68.3835 125.665 67.8665 126.307 67.4972 127.153C67.1335 128 66.9517 129.04 66.9517 130.273C66.9517 131.506 67.1335 132.545 67.4972 133.392C67.8665 134.239 68.3835 134.881 69.0483 135.318C69.7131 135.756 70.4915 135.974 71.3835 135.974C72.2756 135.974 73.054 135.756 73.7188 135.318C74.3835 134.881 74.8977 134.239 75.2614 133.392C75.6307 132.545 75.8153 131.506 75.8153 130.273ZM82.2905 139V121.545H93.8473V124.588H85.9808V128.747H93.0803V131.79H85.9808V139H82.2905ZM96.3295 139V121.545H107.886V124.588H100.02V128.747H107.119V131.79H100.02V139H96.3295Z" fill="#B7B7B7"/>
</svg>
