<svg width="170" height="170" viewBox="0 0 170 170" fill="none" xmlns="http://www.w3.org/2000/svg">
<circle cx="85" cy="85" r="85" fill="#0082FC"/>
<path d="M111 47.84L88.0881 25H84.0755V55.36L65.6577 37L60 42.64L82.4304 65L60 87.36L65.6577 93L84.0755 74.64V105H88.0881L111 82.16L93.7459 65L111 47.84ZM92.1007 40.32L99.6444 47.84L92.1007 55.36V40.32ZM99.6444 82.16L92.1007 89.68V74.64L99.6444 82.16Z" fill="white"/>
<path d="M84.5568 129.273C84.5568 131.176 84.196 132.795 83.4744 134.131C82.7585 135.466 81.7813 136.486 80.5426 137.19C79.3097 137.889 77.9233 138.239 76.3835 138.239C74.8324 138.239 73.4403 137.886 72.2074 137.182C70.9744 136.477 70 135.457 69.2841 134.122C68.5682 132.787 68.2102 131.17 68.2102 129.273C68.2102 127.369 68.5682 125.75 69.2841 124.415C70 123.08 70.9744 122.062 72.2074 121.364C73.4403 120.659 74.8324 120.307 76.3835 120.307C77.9233 120.307 79.3097 120.659 80.5426 121.364C81.7813 122.062 82.7585 123.08 83.4744 124.415C84.196 125.75 84.5568 127.369 84.5568 129.273ZM80.8153 129.273C80.8153 128.04 80.6307 127 80.2614 126.153C79.8977 125.307 79.3835 124.665 78.7188 124.227C78.054 123.79 77.2756 123.571 76.3835 123.571C75.4915 123.571 74.7131 123.79 74.0483 124.227C73.3835 124.665 72.8665 125.307 72.4972 126.153C72.1335 127 71.9517 128.04 71.9517 129.273C71.9517 130.506 72.1335 131.545 72.4972 132.392C72.8665 133.239 73.3835 133.881 74.0483 134.318C74.7131 134.756 75.4915 134.974 76.3835 134.974C77.2756 134.974 78.054 134.756 78.7188 134.318C79.3835 133.881 79.8977 133.239 80.2614 132.392C80.6307 131.545 80.8153 130.506 80.8153 129.273ZM101.89 120.545V138H98.7024L91.1087 127.014H90.9808V138H87.2905V120.545H90.5291L98.0632 131.523H98.2166V120.545H101.89Z" fill="white"/>
</svg>
